<?xml version="1.0" encoding="UTF-8" standalone="no"?>
<svg
   xmlns:dc="http://purl.org/dc/elements/1.1/"
   xmlns:cc="http://creativecommons.org/ns#"
   xmlns:rdf="http://www.w3.org/1999/02/22-rdf-syntax-ns#"
   xmlns:svg="http://www.w3.org/2000/svg"
   xmlns="http://www.w3.org/2000/svg"
   xmlns:sodipodi="http://sodipodi.sourceforge.net/DTD/sodipodi-0.dtd"
   xmlns:inkscape="http://www.inkscape.org/namespaces/inkscape"
   width="1024"
   height="1024"
   viewBox="0 0 270.93333 270.93334"
   version="1.1"
   id="svg2334"
   inkscape:version="1.0.2 (e86c870879, 2021-01-15, custom)"
   sodipodi:docname="close.svg">
  <defs
     id="defs2328" />
  <sodipodi:namedview
     id="base"
     pagecolor="#ffffff"
     bordercolor="#666666"
     borderopacity="1.0"
     inkscape:pageopacity="0.0"
     inkscape:pageshadow="2"
     inkscape:zoom="0.7"
     inkscape:cx="500.16996"
     inkscape:cy="468.50773"
     inkscape:document-units="mm"
     inkscape:current-layer="layer1"
     inkscape:document-rotation="0"
     showgrid="false"
     units="px"
     inkscape:window-width="1566"
     inkscape:window-height="1030"
     inkscape:window-x="224"
     inkscape:window-y="0"
     inkscape:window-maximized="0" />
  <metadata
     id="metadata2331">
    <rdf:RDF>
      <cc:Work
         rdf:about="">
        <dc:format>image/svg+xml</dc:format>
        <dc:type
           rdf:resource="http://purl.org/dc/dcmitype/StillImage" />
        <dc:title></dc:title>
      </cc:Work>
    </rdf:RDF>
  </metadata>
  <g
     inkscape:label="Layer 1"
     inkscape:groupmode="layer"
     id="layer1">
    <path
       id="path2899"
       style="color:#000000;font-style:normal;font-variant:normal;font-weight:normal;font-stretch:normal;font-size:medium;line-height:normal;font-family:sans-serif;font-variant-ligatures:normal;font-variant-position:normal;font-variant-caps:normal;font-variant-numeric:normal;font-variant-alternates:normal;font-variant-east-asian:normal;font-feature-settings:normal;font-variation-settings:normal;text-indent:0;text-align:start;text-decoration:none;text-decoration-line:none;text-decoration-style:solid;text-decoration-color:#000000;letter-spacing:normal;word-spacing:normal;text-transform:none;writing-mode:lr-tb;direction:ltr;text-orientation:mixed;dominant-baseline:auto;baseline-shift:baseline;text-anchor:start;white-space:normal;shape-padding:0;shape-margin:0;inline-size:0;clip-rule:nonzero;display:inline;overflow:visible;visibility:visible;opacity:1;isolation:auto;mix-blend-mode:normal;color-interpolation:sRGB;color-interpolation-filters:linearRGB;solid-color:#000000;solid-opacity:1;vector-effect:none;fill:#00ff00;fill-opacity:1;fill-rule:nonzero;stroke:#000000;stroke-width:40.0000005;stroke-linecap:square;stroke-linejoin:round;stroke-miterlimit:4;stroke-dasharray:none;stroke-dashoffset:0;stroke-opacity:1;color-rendering:auto;image-rendering:auto;shape-rendering:auto;text-rendering:auto;enable-background:accumulate;stop-color:#000000;stop-opacity:1;paint-order:stroke fill markers"
       d="M 512 36.998047 C 249.96102 36.998047 36.998047 249.96102 36.998047 512 C 36.998047 774.03895 249.96102 987.00391 512 987.00391 C 774.03895 987.00391 987.00391 774.03895 987.00391 512 C 987.00391 249.96102 774.03895 36.998047 512 36.998047 z M 512 87.003906 C 747.0173 87.003906 936.99805 276.98268 936.99805 512 C 936.99805 747.0173 747.0173 936.99805 512 936.99805 C 276.98268 936.99805 87.003906 747.0173 87.003906 512 C 87.003906 276.98268 276.98268 87.003906 512 87.003906 z M 290.91211 275.85156 A 15 15 0 0 0 290.60352 275.85352 A 15 15 0 0 0 280.24609 280.24609 A 15 15 0 0 0 280.24609 301.46094 L 490.78516 512 L 280.24609 722.53906 A 15 15 0 0 0 280.24609 743.75586 A 15 15 0 0 0 301.46094 743.75586 L 512 533.2168 L 722.53906 743.75586 A 15 15 0 0 0 743.75586 743.75586 A 15 15 0 0 0 743.75586 722.53906 L 533.2168 512 L 743.75586 301.46094 A 15 15 0 0 0 743.75586 280.24609 A 15 15 0 0 0 732.89648 275.85352 A 15 15 0 0 0 722.53906 280.24609 L 512 490.78516 L 301.46094 280.24609 A 15 15 0 0 0 290.91211 275.85156 z "
       transform="scale(0.26458333)" />
  </g>
</svg>
