<?xml version="1.0" encoding="UTF-8" standalone="no"?>
<svg
   xmlns:dc="http://purl.org/dc/elements/1.1/"
   xmlns:cc="http://creativecommons.org/ns#"
   xmlns:rdf="http://www.w3.org/1999/02/22-rdf-syntax-ns#"
   xmlns:svg="http://www.w3.org/2000/svg"
   xmlns="http://www.w3.org/2000/svg"
   xmlns:sodipodi="http://sodipodi.sourceforge.net/DTD/sodipodi-0.dtd"
   xmlns:inkscape="http://www.inkscape.org/namespaces/inkscape"
   width="1024"
   height="1024"
   viewBox="0 0 270.93332 270.93333"
   version="1.1"
   id="svg8"
   inkscape:version="1.0.2 (e86c870879, 2021-01-15, custom)"
   sodipodi:docname="Logo.svg">
  <defs
     id="defs2" />
  <sodipodi:namedview
     id="base"
     pagecolor="#ffffff"
     bordercolor="#666666"
     borderopacity="1.0"
     inkscape:pageopacity="0.0"
     inkscape:pageshadow="2"
     inkscape:zoom="0.7"
     inkscape:cx="696.42466"
     inkscape:cy="471.05894"
     inkscape:document-units="mm"
     inkscape:current-layer="layer1"
     inkscape:document-rotation="0"
     showgrid="false"
     units="px"
     inkscape:window-width="1566"
     inkscape:window-height="1030"
     inkscape:window-x="74"
     inkscape:window-y="0"
     inkscape:window-maximized="0" />
  <metadata
     id="metadata5">
    <rdf:RDF>
      <cc:Work
         rdf:about="">
        <dc:format>image/svg+xml</dc:format>
        <dc:type
           rdf:resource="http://purl.org/dc/dcmitype/StillImage" />
        <dc:title></dc:title>
      </cc:Work>
    </rdf:RDF>
  </metadata>
  <g
     inkscape:groupmode="layer"
     id="layer2"
     inkscape:label="Layer 2" />
  <g
     inkscape:label="Layer 1"
     inkscape:groupmode="layer"
     id="layer1">
    <g
       id="g863"
       transform="translate(15.053875,2.7402423)">
      <path
         style="color:#000000;font-style:normal;font-variant:normal;font-weight:normal;font-stretch:normal;font-size:medium;line-height:normal;font-family:sans-serif;font-variant-ligatures:normal;font-variant-position:normal;font-variant-caps:normal;font-variant-numeric:normal;font-variant-alternates:normal;font-variant-east-asian:normal;font-feature-settings:normal;font-variation-settings:normal;text-indent:0;text-align:start;text-decoration:none;text-decoration-line:none;text-decoration-style:solid;text-decoration-color:#000000;letter-spacing:normal;word-spacing:normal;text-transform:none;writing-mode:lr-tb;direction:ltr;text-orientation:mixed;dominant-baseline:auto;baseline-shift:baseline;text-anchor:start;white-space:normal;shape-padding:0;shape-margin:0;inline-size:0;clip-rule:nonzero;display:inline;overflow:visible;visibility:visible;isolation:auto;mix-blend-mode:normal;color-interpolation:sRGB;color-interpolation-filters:linearRGB;solid-color:#000000;solid-opacity:1;vector-effect:none;fill:#00ff00;fill-opacity:1;fill-rule:nonzero;stroke:none;stroke-linecap:square;stroke-linejoin:round;stroke-miterlimit:4;stroke-dasharray:none;stroke-dashoffset:0;stroke-opacity:1;color-rendering:auto;image-rendering:auto;shape-rendering:auto;text-rendering:auto;enable-background:accumulate;stop-color:#000000"
         d="m 122.58429,24.794178 c -7.28274,-0.183135 -14.88857,0.798874 -22.720698,3.3125 C 49.873165,43.929095 25.732931,93.242614 24.705388,139.8684 c -0.513902,23.31885 4.495441,46.48287 15.439453,65.89453 10.91992,19.36893 28.284501,35.07008 51.121091,41.20313 36.696928,10.79818 65.246178,5.75764 84.537108,-11.01758 19.32679,-16.8064 18.22374,-35.18712 26.8056,-62.00542 0.59582,-6.36606 11.03392,-12.98901 20.94401,-16.24096 5.30668,-1.74136 3.01994,-7.57918 3.01994,-7.57918 0,0 -41.12823,-1.12328 -47.86308,-1.24743 -28.18208,-0.94961 -45.84992,0.564 -45.84992,0.564 0,0 -2.85357,0.77106 3.3491,6.73178 0,0 18.82226,7.43399 29.94855,17.97764 -6.71988,17.6571 1.70226,33.6451 -7.71552,41.83472 -12.27119,10.67091 -29.19767,17.8567 -59.875008,5.5625 -30.14016,-12.07892 -30.85899,-60.52962 -30.57217,-81.36102 0.84035,-38.13161 2.66585,-75.100591 39.880768,-86.863588 0.0202,-0.0065 0.0404,-0.01297 0.0606,-0.01953 20.16653,-6.479126 37.40729,2.447769 51.63281,14.667969 14.22552,12.220201 22.96484,26.462891 22.96484,26.462891 24.57966,31.487828 22.13199,46.483968 24.54297,-6.855469 V 45.999256 32.77074 h -26.45898 c 0,0 10.49367,12.926232 8.69345,26.176712 -1.255,-1.16606 -11.16075,-9.897265 -12.50009,-11.047805 C 163.40671,36.384994 144.45269,25.34409 122.58434,24.794178 Z"
         id="path833-3"
         sodipodi:nodetypes="scsscscscccscsscccsccccccss" />
      <path
         style="color:#000000;font-style:normal;font-variant:normal;font-weight:normal;font-stretch:normal;font-size:medium;line-height:normal;font-family:sans-serif;font-variant-ligatures:normal;font-variant-position:normal;font-variant-caps:normal;font-variant-numeric:normal;font-variant-alternates:normal;font-variant-east-asian:normal;font-feature-settings:normal;font-variation-settings:normal;text-indent:0;text-align:start;text-decoration:none;text-decoration-line:none;text-decoration-style:solid;text-decoration-color:#000000;letter-spacing:normal;word-spacing:normal;text-transform:none;writing-mode:lr-tb;direction:ltr;text-orientation:mixed;dominant-baseline:auto;baseline-shift:baseline;text-anchor:start;white-space:normal;shape-padding:0;shape-margin:0;inline-size:0;clip-rule:nonzero;display:inline;overflow:visible;visibility:visible;opacity:1;isolation:auto;mix-blend-mode:normal;color-interpolation:sRGB;color-interpolation-filters:linearRGB;solid-color:#000000;solid-opacity:1;vector-effect:none;fill:#000000;fill-opacity:1;fill-rule:nonzero;stroke:none;stroke-linecap:square;stroke-linejoin:round;stroke-miterlimit:4;stroke-dasharray:none;stroke-dashoffset:0;stroke-opacity:1;color-rendering:auto;image-rendering:auto;shape-rendering:auto;text-rendering:auto;enable-background:accumulate;stop-color:#000000;stop-opacity:1"
         d="m 111.67773,12.8125 c -7.28274,-0.183135 -14.88857,0.798874 -22.720699,3.3125 -49.990426,15.822417 -74.13066,65.135936 -75.158203,111.76172 -0.513902,23.31885 4.495441,46.48287 15.439453,65.89453 10.91992,19.36893 28.284501,35.07008 51.121094,41.20313 36.696925,10.79818 65.246175,5.75764 84.537105,-11.01758 19.32679,-16.8064 18.22374,-35.18712 26.8056,-62.00542 0.59582,-6.36606 11.03392,-12.98901 20.94401,-16.24096 5.30668,-1.74136 3.01994,-7.57918 3.01994,-7.57918 0,0 -41.12823,-1.12328 -47.86308,-1.24743 -28.18208,-0.94961 -45.84992,0.564 -45.84992,0.564 0,0 -2.85357,0.77106 3.3491,6.73178 0,0 18.82226,7.43399 29.94855,17.97764 -6.71988,17.6571 1.70226,33.6451 -7.71552,41.83472 -12.27119,10.67091 -29.19767,17.8567 -59.875004,5.5625 C 57.519994,197.48553 56.801163,149.03483 57.08798,128.20343 57.928327,90.071826 59.753833,53.102841 96.96875,41.339844 c 0.0202,-0.0065 0.04038,-0.01297 0.06055,-0.01953 20.16653,-6.479126 37.40729,2.447769 51.63281,14.667969 14.22552,12.220201 22.96484,26.462891 22.96484,26.462891 24.57966,31.487826 22.13199,46.483966 24.54297,-6.855469 V 34.017578 20.789062 h -26.45898 c 0,0 10.49367,12.926232 8.69345,26.176712 -1.255,-1.16606 -11.16075,-9.897265 -12.50009,-11.047805 C 152.5001,24.403316 133.54608,13.362412 111.67773,12.8125 Z"
         id="path833"
         sodipodi:nodetypes="scsscscscccscsscccsccccccss" />
    </g>
  </g>
</svg>
