<?xml version="1.0" encoding="UTF-8" standalone="no"?>
<svg
   xmlns:dc="http://purl.org/dc/elements/1.1/"
   xmlns:cc="http://creativecommons.org/ns#"
   xmlns:rdf="http://www.w3.org/1999/02/22-rdf-syntax-ns#"
   xmlns:svg="http://www.w3.org/2000/svg"
   xmlns="http://www.w3.org/2000/svg"
   xmlns:sodipodi="http://sodipodi.sourceforge.net/DTD/sodipodi-0.dtd"
   xmlns:inkscape="http://www.inkscape.org/namespaces/inkscape"
   width="1024"
   height="1024"
   viewBox="0 0 270.93332 270.93333"
   version="1.1"
   id="svg8"
   inkscape:version="1.0.2 (e86c870879, 2021-01-15, custom)"
   sodipodi:docname="LogoOutline.svg">
  <defs
     id="defs2" />
  <sodipodi:namedview
     id="base"
     pagecolor="#ffffff"
     bordercolor="#666666"
     borderopacity="1.0"
     inkscape:pageopacity="0.0"
     inkscape:pageshadow="2"
     inkscape:zoom="0.7"
     inkscape:cx="696.42466"
     inkscape:cy="413.91608"
     inkscape:document-units="mm"
     inkscape:current-layer="layer3"
     inkscape:document-rotation="0"
     showgrid="false"
     units="px"
     inkscape:window-width="1920"
     inkscape:window-height="1001"
     inkscape:window-x="-9"
     inkscape:window-y="-9"
     inkscape:window-maximized="1" />
  <metadata
     id="metadata5">
    <rdf:RDF>
      <cc:Work
         rdf:about="">
        <dc:format>image/svg+xml</dc:format>
        <dc:type
           rdf:resource="http://purl.org/dc/dcmitype/StillImage" />
        <dc:title></dc:title>
      </cc:Work>
    </rdf:RDF>
  </metadata>
  <g
     inkscape:groupmode="layer"
     id="layer3"
     inkscape:label="Layer 3">
    <path
       id="path833-3-0"
       style="color:#000000;font-style:normal;font-variant:normal;font-weight:normal;font-stretch:normal;font-size:medium;line-height:normal;font-family:sans-serif;font-variant-ligatures:normal;font-variant-position:normal;font-variant-caps:normal;font-variant-numeric:normal;font-variant-alternates:normal;font-variant-east-asian:normal;font-feature-settings:normal;font-variation-settings:normal;text-indent:0;text-align:start;text-decoration:none;text-decoration-line:none;text-decoration-style:solid;text-decoration-color:#000000;letter-spacing:normal;word-spacing:normal;text-transform:none;writing-mode:lr-tb;direction:ltr;text-orientation:mixed;dominant-baseline:auto;baseline-shift:baseline;text-anchor:start;white-space:normal;shape-padding:0;shape-margin:0;inline-size:0;clip-rule:nonzero;display:inline;overflow:visible;visibility:visible;isolation:auto;mix-blend-mode:normal;color-interpolation:sRGB;color-interpolation-filters:linearRGB;solid-color:#000000;solid-opacity:1;vector-effect:none;fill:#00ff00;fill-opacity:1;fill-rule:nonzero;stroke:#ffffff;stroke-width:50.00000063;stroke-linecap:square;stroke-linejoin:round;stroke-miterlimit:4;stroke-dasharray:none;stroke-dashoffset:0;stroke-opacity:1;color-rendering:auto;image-rendering:auto;shape-rendering:auto;text-rendering:auto;enable-background:accumulate;stop-color:#000000"
       d="M 473.81055 58.705078 C 447.86377 58.577305 420.86297 62.394232 393.11133 71.300781 C 204.17108 131.10204 112.93246 317.48556 109.04883 493.70898 C 107.10652 581.84322 126.0411 669.39091 167.4043 742.75781 C 185.60422 775.03946 208.5465 804.61962 235.9043 829.59766 C 276.63218 883.25983 332.56646 925.16779 401.83789 943.77148 C 540.53491 984.5835 648.43897 965.53327 721.34961 902.13086 C 794.39571 838.61061 790.2267 769.1398 822.66211 667.7793 C 824.91403 643.7186 864.36485 618.68732 901.82031 606.39648 C 921.87706 599.81497 913.23438 577.75 913.23438 577.75 C 913.23438 577.75 871.14332 576.60133 827.07031 575.42969 C 837.70307 569.74126 849.2388 564.83868 860.59766 561.11133 C 880.6544 554.52981 872.01172 532.46484 872.01172 532.46484 C 872.01172 532.46484 716.56783 528.21923 691.11328 527.75 C 584.59833 524.16092 517.82227 529.88281 517.82227 529.88281 C 517.82227 529.88281 507.03535 532.79747 530.47852 555.32617 C 530.47852 555.32617 548.23324 562.33864 571.24414 574.32422 C 563.25936 574.80729 559.04297 575.16797 559.04297 575.16797 C 559.04297 575.16797 548.25801 578.08262 571.70117 600.61133 C 571.70117 600.61133 605.16697 613.83081 639.75977 634.99219 C 621.79498 697.02221 648.0081 752.25881 614.50977 781.38867 C 568.13046 821.71967 504.15675 848.87838 388.21094 802.41211 C 378.10816 798.36334 368.88355 793.22807 360.45508 787.18555 C 314.35113 712.56903 313.08516 598.12219 313.88281 540.18945 C 317.05894 396.06998 323.96037 256.34529 464.61523 211.88672 C 464.69158 211.86215 464.7674 211.83729 464.84375 211.8125 C 541.06371 187.32446 606.22449 221.06537 659.99023 267.25195 C 666.11292 272.51155 671.95279 277.86926 677.51953 283.23633 C 695.50102 305.62045 705.56445 321.98242 705.56445 321.98242 C 761.98681 394.2624 780.72846 443.53616 788.78906 425.93359 C 836.87039 498.41381 832.1314 505.45736 839.54883 341.35742 L 839.54883 184.21289 L 839.54883 134.21484 L 798.32617 134.21484 L 798.32617 88.929688 L 698.32422 88.929688 C 698.32422 88.929688 737.98562 137.78468 731.18164 187.86523 C 726.43833 183.45808 688.99762 150.45787 683.93555 146.10938 C 633.27415 102.58943 561.63832 60.859658 478.98633 58.78125 C 477.26599 58.73799 475.54033 58.713596 473.81055 58.705078 z "
       transform="scale(0.26458333)" />
  </g>
  <g
     inkscape:groupmode="layer"
     id="layer2"
     inkscape:label="Layer 2"
     style="display:none" />
  <g
     inkscape:label="Layer 1"
     inkscape:groupmode="layer"
     id="layer1"
     style="display:inline">
    <path
       style="color:#000000;font-style:normal;font-variant:normal;font-weight:normal;font-stretch:normal;font-size:medium;line-height:normal;font-family:sans-serif;font-variant-ligatures:normal;font-variant-position:normal;font-variant-caps:normal;font-variant-numeric:normal;font-variant-alternates:normal;font-variant-east-asian:normal;font-feature-settings:normal;font-variation-settings:normal;text-indent:0;text-align:start;text-decoration:none;text-decoration-line:none;text-decoration-style:solid;text-decoration-color:#000000;letter-spacing:normal;word-spacing:normal;text-transform:none;writing-mode:lr-tb;direction:ltr;text-orientation:mixed;dominant-baseline:auto;baseline-shift:baseline;text-anchor:start;white-space:normal;shape-padding:0;shape-margin:0;inline-size:0;clip-rule:nonzero;display:inline;overflow:visible;visibility:visible;isolation:auto;mix-blend-mode:normal;color-interpolation:sRGB;color-interpolation-filters:linearRGB;solid-color:#000000;solid-opacity:1;vector-effect:none;fill:#00ff00;fill-opacity:1;fill-rule:nonzero;stroke:none;stroke-linecap:square;stroke-linejoin:round;stroke-miterlimit:4;stroke-dasharray:none;stroke-dashoffset:0;stroke-opacity:1;color-rendering:auto;image-rendering:auto;shape-rendering:auto;text-rendering:auto;enable-background:accumulate;stop-color:#000000"
       d="m 137.63816,27.53442 c -7.28274,-0.183135 -14.88856,0.798874 -22.72069,3.3125 -49.99043,15.822417 -74.130664,65.135936 -75.158207,111.76172 -0.513902,23.31885 4.495441,46.48287 15.439453,65.89453 10.91992,19.36893 28.284501,35.07008 51.121094,41.20313 36.69692,10.79818 65.24617,5.75764 84.53711,-11.01758 19.32678,-16.8064 18.22373,-35.18712 26.8056,-62.00542 0.59582,-6.36606 11.03391,-12.98901 20.944,-16.24096 5.30668,-1.74136 3.01994,-7.57918 3.01994,-7.57918 0,0 -41.12823,-1.12328 -47.86308,-1.24743 -28.18208,-0.94961 -45.84992,0.564 -45.84992,0.564 0,0 -2.85357,0.77106 3.3491,6.73178 0,0 18.82226,7.43399 29.94855,17.97764 -6.71987,17.6571 1.70226,33.6451 -7.71552,41.83472 -12.27118,10.67091 -29.19766,17.8567 -59.875,5.5625 -30.140163,-12.07892 -30.858993,-60.52962 -30.572173,-81.36102 0.84035,-38.13161 2.66585,-75.100589 39.880773,-86.863586 0.0202,-0.0065 0.0404,-0.01297 0.0606,-0.01953 20.16653,-6.479126 37.40729,2.447769 51.63281,14.667969 14.22552,12.220201 22.96484,26.462891 22.96484,26.462891 24.57966,31.487826 22.13199,46.483966 24.54297,-6.855469 V 48.739498 35.510982 h -26.45898 c 0,0 10.49367,12.926232 8.69345,26.176712 -1.25499,-1.16606 -11.16075,-9.897265 -12.50009,-11.047805 C 178.46058,39.125236 159.50656,28.084332 137.63821,27.53442 Z"
       id="path833-3"
       sodipodi:nodetypes="scsscscscccscsscccsccccccss" />
    <path
       style="color:#000000;font-style:normal;font-variant:normal;font-weight:normal;font-stretch:normal;font-size:medium;line-height:normal;font-family:sans-serif;font-variant-ligatures:normal;font-variant-position:normal;font-variant-caps:normal;font-variant-numeric:normal;font-variant-alternates:normal;font-variant-east-asian:normal;font-feature-settings:normal;font-variation-settings:normal;text-indent:0;text-align:start;text-decoration:none;text-decoration-line:none;text-decoration-style:solid;text-decoration-color:#000000;letter-spacing:normal;word-spacing:normal;text-transform:none;writing-mode:lr-tb;direction:ltr;text-orientation:mixed;dominant-baseline:auto;baseline-shift:baseline;text-anchor:start;white-space:normal;shape-padding:0;shape-margin:0;inline-size:0;clip-rule:nonzero;display:inline;overflow:visible;visibility:visible;isolation:auto;mix-blend-mode:normal;color-interpolation:sRGB;color-interpolation-filters:linearRGB;solid-color:#000000;solid-opacity:1;vector-effect:none;fill:#000000;fill-opacity:1;fill-rule:nonzero;stroke:none;stroke-linecap:square;stroke-linejoin:round;stroke-miterlimit:4;stroke-dasharray:none;stroke-dashoffset:0;stroke-opacity:1;color-rendering:auto;image-rendering:auto;shape-rendering:auto;text-rendering:auto;enable-background:accumulate;stop-color:#000000"
       d="m 126.73161,15.552742 c -7.28275,-0.183135 -14.88857,0.798874 -22.7207,3.3125 -49.99043,15.822417 -74.130664,65.135936 -75.158207,111.761718 -0.513902,23.31885 4.495441,46.48287 15.439453,65.89453 10.91992,19.36893 28.284501,35.07008 51.121094,41.20313 36.69692,10.79818 65.24617,5.75764 84.5371,-11.01758 19.32679,-16.8064 18.22374,-35.18712 26.8056,-62.00542 0.59582,-6.36606 11.03392,-12.98901 20.94401,-16.24096 5.30668,-1.74136 3.01994,-7.57918 3.01994,-7.57918 0,0 -41.12823,-1.12328 -47.86308,-1.24743 -28.18208,-0.94961 -45.84992,0.564 -45.84992,0.564 0,0 -2.85357,0.77106 3.3491,6.73178 0,0 18.82226,7.43399 29.94855,17.97764 -6.71988,17.6571 1.70226,33.6451 -7.71552,41.83472 -12.27119,10.67091 -29.19767,17.8567 -59.875,5.5625 -30.140161,-12.07892 -30.858992,-60.52962 -30.572175,-81.36102 0.840347,-38.131602 2.665853,-75.100587 39.880775,-86.863584 0.0202,-0.0065 0.0404,-0.01297 0.0605,-0.01953 20.16652,-6.479126 37.40729,2.447769 51.63281,14.667969 14.22551,12.220201 22.96484,26.462891 22.96484,26.462891 24.57966,31.487824 22.13199,46.483964 24.54297,-6.855469 V 36.75782 23.529304 h -26.45898 c 0,0 10.49367,12.926232 8.69345,26.176712 -1.255,-1.16606 -11.16075,-9.897265 -12.50009,-11.047805 C 167.55397,27.143558 148.59995,16.102654 126.73161,15.552742 Z"
       id="path833"
       sodipodi:nodetypes="scsscscscccscsscccsccccccss" />
  </g>
</svg>
